<svg width="126" height="43" viewBox="0 0 126 43" fill="none" xmlns="http://www.w3.org/2000/svg">
<path d="M5.46 23.18L1.46 22.96C1.26 22.96 1.08 22.78 1.08 22.56V22.52L1.88 6.72C1.9 6.5 2.08 6.32 2.28 6.32H2.32L5.66 6.5C6.52 6.18 7.4 6.02 8.24 6.02C11.76 6.02 14.92 8.58 14.92 12.22C14.92 15.86 12.34 18.16 8.56 18.16C7.72 18.16 6.9 18.04 6.16 17.8L5.9 22.78C5.88 23.02 5.7 23.18 5.46 23.18ZM6.56 10.08L6.34 14.08C6.78 14.3 7.36 14.46 7.92 14.46C8.08 14.46 10 14.46 10 12.26C10 10.88 8.96 9.92 7.56 9.92C7.24 9.92 6.9 9.98 6.56 10.08ZM30.1831 15.22L28.9431 17.64C28.7631 17.98 28.5631 18.16 28.3031 18.16C28.1031 18.16 26.7031 17.84 25.7031 16.9C24.6631 17.44 23.5831 17.68 22.5631 17.68C19.2231 17.68 16.3431 15.12 16.3431 11.9C16.3431 9.5 18.0431 6.04 22.0031 6.04C23.0031 6.04 23.9831 6.26 24.7631 6.6C24.8831 6.46 25.0631 6.4 25.3031 6.4H25.4031L28.8631 6.7C29.3831 6.74 29.5231 7 29.5231 7.24V7.34C29.2431 9.16 28.9631 10.9 28.9631 12.22C28.9631 13.42 29.1831 14.28 29.8231 14.62C30.0231 14.72 30.2431 14.84 30.2431 15.04C30.2431 15.08 30.2231 15.14 30.1831 15.22ZM24.3231 13.76C24.2631 13.24 24.2231 12.68 24.2231 12.06C24.2231 11.54 24.2431 11 24.2831 10.4C24.0431 10 23.5031 9.72 22.9231 9.72C21.6631 9.72 20.9631 10.94 20.9631 11.96C20.9631 13.08 21.7431 14.04 23.0431 14.04C23.4231 14.04 23.8631 13.96 24.3231 13.76ZM39.265 14.86L38.225 17.38C38.065 17.76 37.885 17.96 37.585 17.96C37.525 17.96 37.465 17.96 37.405 17.94C34.185 17.3 33.065 15.54 32.965 10.48L31.465 10.4C31.245 10.38 31.065 10.18 31.065 9.96L31.305 6.64C31.325 6.42 31.505 6.24 31.745 6.24L33.025 6.32C33.065 5.56 33.105 4.74 33.165 3.88C33.185 3.64 33.225 3.26 33.745 3.26H33.825L37.605 3.44C37.945 3.46 38.105 3.66 38.105 4C38.065 4.84 38.005 5.72 37.945 6.56L39.325 6.64C39.545 6.64 39.725 6.84 39.725 7.08L39.485 10.4C39.465 10.6 39.305 10.78 39.085 10.78H39.045L37.725 10.72C37.725 12.54 37.965 13.92 38.845 14.3C39.065 14.4 39.305 14.48 39.305 14.7C39.305 14.74 39.285 14.8 39.265 14.86ZM55.8083 16.28L53.9083 17.84C53.6883 18.02 53.4883 18.08 53.3083 18.08C53.2283 18.08 49.5283 17.4 49.5283 13.34C49.5283 10.92 48.4083 10.06 46.9683 10.06H46.8683V17.32C46.8683 17.56 46.6883 17.74 46.4683 17.74H42.4683C42.2283 17.74 42.0483 17.56 42.0483 17.32V0.959999C42.0483 0.74 42.2283 0.54 42.4683 0.54H46.4683C46.6883 0.54 46.8683 0.74 46.8683 0.959999V6.16C47.1083 6.14 47.3483 6.14 47.5683 6.14C51.3283 6.14 54.3283 8.38 54.3883 12.34C54.4083 13.64 54.6683 14.64 55.6483 15.42C55.7683 15.52 55.9883 15.72 55.9883 15.94C55.9883 16.04 55.9483 16.16 55.8083 16.28ZM70.8956 17.62L66.8956 17.84H66.8556C66.6356 17.84 66.4756 17.66 66.4556 17.44L66.1556 10.92L63.1556 10.76C63.2356 12.88 63.3956 15.24 63.5556 17.08V17.18C63.5556 17.62 63.2756 17.68 63.0156 17.68C63.0156 17.68 59.7356 17.9 59.2756 17.9H59.2356C58.9356 17.9 58.7356 17.66 58.7156 17.38C58.6356 15.38 58.4756 12.84 58.4156 10.48L56.9756 10.4C56.7556 10.38 56.5756 10.18 56.5756 9.96L56.8156 6.64C56.8156 6.42 57.0156 6.24 57.2556 6.24L58.4356 6.32L58.4756 5.76C58.8156 2.04 62.3156 0.559999 65.7956 0.559999C70.4956 0.559999 70.9556 2.66 70.9556 3.58C70.9556 5.12 69.6956 6.38 68.1556 6.38C66.8356 6.38 65.7356 5.48 65.4356 4.24C63.3356 4.54 63.1356 5.8 63.1356 6.58L70.1956 6.96C70.6156 6.98 70.7756 7.16 70.7756 7.44L71.2756 17.2V17.24C71.2756 17.44 71.0956 17.62 70.8956 17.62ZM86.2652 12.32V12.98C86.2652 14.1 86.5252 15 87.3452 15.76C87.4652 15.86 87.6652 16.06 87.6652 16.28C87.6652 16.4 87.6052 16.52 87.4652 16.62C87.4652 16.66 85.4852 18.08 85.4852 18.08C85.2852 18.24 85.0852 18.3 84.9052 18.3C84.5452 18.3 81.3452 17.24 81.3452 13.68V13C81.3452 10.9 80.3252 10.02 78.8652 9.94L78.4852 17.2C78.4852 17.4 78.3052 17.58 78.1052 17.58H78.0652L74.0652 17.38C73.8252 17.36 73.6652 17.18 73.6652 16.94L74.2052 6.54C74.2252 6.32 74.4052 6.14 74.6052 6.14H74.6452L76.8852 6.26C77.6652 6.1 78.4052 6.02 79.1252 6.02C83.1852 6.02 86.2652 8.5 86.2652 12.32ZM102.653 15L101.573 17.5C101.413 17.88 101.213 18.08 100.913 18.08C100.913 18.08 99.1925 17.9 98.0725 16.78C96.9525 17.4 95.7925 17.68 94.6925 17.68C91.3525 17.68 88.4925 15.12 88.4925 11.9C88.4925 9.46 90.1925 6.04 94.1525 6.04C95.0125 6.04 95.8725 6.22 96.5925 6.48L96.9525 1.12C96.9725 0.779999 97.2925 0.579999 97.6925 0.579999L101.153 0.64C101.713 0.64 101.873 0.899999 101.873 1.18V1.24C101.833 1.5 101.193 9.84 101.193 11.22C101.193 12.86 101.433 14.08 102.253 14.44C102.473 14.54 102.693 14.64 102.693 14.82C102.693 14.88 102.693 14.94 102.653 15ZM96.6525 13.66C96.5125 12.76 96.4325 11.7 96.4325 10.42C96.2125 10.02 95.6525 9.74 95.0525 9.74C93.8525 9.74 93.0925 10.84 93.0925 11.96C93.0925 13.08 93.8725 14.04 95.1525 14.04C95.5925 14.04 96.0925 13.92 96.6525 13.66ZM110.574 18.12H110.334C105.794 18.12 103.514 15.02 103.514 11.98C103.514 9.12 105.534 6.12 110.094 6.12C115.054 6.12 115.274 10.54 115.274 11.2C115.274 12.12 114.894 12.88 113.714 13.28C112.774 13.6 111.294 13.82 110.254 13.86C109.934 13.86 109.834 13.72 109.754 13.48C109.514 12.82 109.134 11.52 109.134 11.44C109.134 11.22 109.294 11.12 109.554 11.06C110.594 10.82 110.734 10.78 110.734 10.5C110.734 10.32 110.354 9.68 109.514 9.68C108.554 9.68 107.754 10.52 107.754 11.76C107.754 13.18 108.794 14.78 111.294 14.78C111.434 14.78 111.594 14.78 111.734 14.76H111.774C112.054 14.76 112.394 14.94 112.394 15.28C112.394 15.48 111.874 16.84 111.574 17.52C111.414 17.84 111.154 18.12 110.574 18.12ZM122.178 17.66L118.198 17.88C117.958 17.88 117.758 17.72 117.758 17.48L117.198 7.08C117.198 6.84 117.378 6.64 117.598 6.64L119.918 6.52C120.998 6.18 122.038 6.02 123.038 6.02C123.718 6.02 124.378 6.1 124.998 6.24C125.298 6.32 125.418 6.48 125.418 6.72C125.418 6.8 125.398 6.88 125.378 6.98L124.798 9.8C124.738 10.08 124.538 10.22 124.298 10.22C124.238 10.22 124.158 10.2 124.078 10.18C123.758 10.08 123.418 10.02 123.078 10.02C122.798 10.02 122.518 10.06 122.198 10.14L122.578 17.22V17.26C122.578 17.48 122.398 17.66 122.178 17.66ZM3.179 39.363L1.342 39.462C1.221 39.462 1.111 39.374 1.1 39.242L0.638 30.255V30.233C0.638 30.123 0.737 30.024 0.847 30.013L3.047 29.903H3.069C3.19 29.903 3.278 30.002 3.289 30.123L3.443 33.148C3.861 33.016 4.312 32.95 4.774 32.95C6.886 32.95 8.272 34.237 8.272 36.217C8.272 38.219 6.523 39.627 4.598 39.627C4.125 39.627 3.652 39.539 3.179 39.363ZM3.553 35.26L3.674 37.46C3.861 37.515 4.037 37.537 4.213 37.537C4.983 37.537 5.566 37.009 5.566 36.261C5.566 35.788 5.335 35.04 4.433 35.04C4.114 35.04 3.795 35.139 3.553 35.26ZM11.0127 42.52L9.41772 41.904C9.25272 41.838 9.17572 41.75 9.17572 41.64C9.17572 41.563 9.20872 41.486 9.26372 41.409L10.9907 38.846C10.9577 38.813 10.9357 38.758 10.9027 38.692L8.84572 34.039C8.81272 33.962 8.79072 33.896 8.79072 33.841C8.79072 33.687 8.92272 33.588 9.08772 33.544L10.8367 33.027C10.8807 33.016 10.9247 33.005 10.9687 33.005C11.1667 33.005 11.3097 33.148 11.3867 33.335L12.6957 36.294C13.3447 35.315 13.9717 34.336 14.5107 33.489C14.5767 33.379 14.6537 33.313 14.7747 33.313C14.8407 33.313 14.9397 33.335 15.0497 33.401L16.6887 34.248C16.8207 34.314 16.8867 34.391 16.8867 34.49C16.8867 34.655 16.0507 36.91 11.5517 42.377C11.4417 42.498 11.3427 42.564 11.2107 42.564C11.1557 42.564 11.0897 42.553 11.0127 42.52ZM25.734 39.396H24.623C24.403 39.396 24.205 39.352 24.084 39.143L21.565 34.369C21.51 34.259 21.488 34.171 21.488 34.094C21.488 33.973 21.554 33.896 21.675 33.841C21.939 33.72 23.38 33.126 23.611 33.126C23.776 33.126 23.886 33.203 23.941 33.313L25.173 36.03C25.195 36.085 25.228 36.107 25.25 36.107C25.283 36.107 25.305 36.085 25.338 36.019C25.723 35.128 26.328 33.511 26.405 33.324C26.471 33.181 26.581 33.115 26.724 33.115C26.801 33.115 26.878 33.126 26.966 33.159L28.44 33.61C28.693 33.687 28.792 33.797 28.792 33.951C28.792 34.127 27.582 38.065 26.229 39.231C26.119 39.319 25.932 39.396 25.734 39.396ZM32.5236 39.352L30.3236 39.462H30.3016C30.1806 39.462 30.0926 39.363 30.0816 39.242L29.8066 33.885C29.8066 33.753 29.8946 33.654 30.0266 33.643L32.2266 33.533H32.2486C32.3586 33.533 32.4576 33.632 32.4576 33.742L32.7326 39.11V39.132C32.7326 39.242 32.6336 39.341 32.5236 39.352ZM32.6336 31.729C32.6336 32.62 31.9076 33.346 31.0166 33.346C30.1146 33.346 29.3886 32.62 29.3886 31.729C29.3886 30.827 30.1146 30.101 31.0166 30.101C31.9076 30.101 32.6336 30.827 32.6336 31.729ZM36.4798 39.363L34.6428 39.462C34.5218 39.462 34.4118 39.374 34.4008 39.242L33.9388 30.255V30.233C33.9388 30.123 34.0378 30.024 34.1478 30.013L36.3478 29.903H36.3698C36.4908 29.903 36.5788 30.002 36.5898 30.123L36.7438 33.148C37.1618 33.016 37.6128 32.95 38.0748 32.95C40.1868 32.95 41.5728 34.237 41.5728 36.217C41.5728 38.219 39.8238 39.627 37.8988 39.627C37.4258 39.627 36.9528 39.539 36.4798 39.363ZM36.8538 35.26L36.9748 37.46C37.1618 37.515 37.3378 37.537 37.5138 37.537C38.2838 37.537 38.8668 37.009 38.8668 36.261C38.8668 35.788 38.6358 35.04 37.7338 35.04C37.4148 35.04 37.0958 35.139 36.8538 35.26ZM50.3635 38.604L49.3185 39.462C49.1975 39.561 49.0875 39.594 48.9885 39.594C48.9445 39.594 46.9095 39.22 46.9095 36.987C46.9095 35.656 46.2935 35.183 45.5015 35.183H45.4465V39.176C45.4465 39.308 45.3475 39.407 45.2265 39.407H43.0265C42.8945 39.407 42.7955 39.308 42.7955 39.176V30.178C42.7955 30.057 42.8945 29.947 43.0265 29.947H45.2265C45.3475 29.947 45.4465 30.057 45.4465 30.178V33.038C45.5785 33.027 45.7105 33.027 45.8315 33.027C47.8995 33.027 49.5495 34.259 49.5825 36.437C49.5935 37.152 49.7365 37.702 50.2755 38.131C50.3415 38.186 50.4625 38.296 50.4625 38.417C50.4625 38.472 50.4405 38.538 50.3635 38.604ZM57.6825 39.385L55.5265 39.264C54.9985 39.429 54.4815 39.517 53.9975 39.517C52.4685 39.517 51.2805 38.659 51.1815 36.613C51.1485 35.898 51.1265 34.534 51.1155 33.83C51.1155 33.379 51.2695 33.291 51.4015 33.28C51.4125 33.258 53.1175 33.137 53.3045 33.137C53.5245 33.137 53.6125 33.247 53.6235 33.379C53.6895 34.116 53.7115 34.71 53.7775 36.019C53.8215 36.965 54.1515 37.295 54.6135 37.295C54.8335 37.295 55.0975 37.218 55.3725 37.086L55.5705 33.302C55.5815 33.17 55.6915 33.082 55.8125 33.082L58.0015 33.203C58.1335 33.203 58.2215 33.313 58.2215 33.445L57.9245 39.165C57.9135 39.297 57.8035 39.385 57.6825 39.385ZM64.7347 39.594H64.6137C64.3717 39.594 64.2617 39.55 64.1957 39.363L63.7117 38.087C63.7007 38.054 63.6897 38.021 63.6897 37.999C63.6897 37.834 63.9097 37.812 64.0417 37.812C64.6907 37.801 64.9987 37.493 64.9987 37.229C64.9987 37.086 64.8557 36.91 64.7017 36.712L64.4047 36.382C63.9207 35.832 63.7227 35.359 63.7227 34.941C63.7227 33.698 65.5157 33.038 66.9567 33.038C67.3857 33.038 67.4957 33.082 67.5727 33.28L68.0677 34.556C68.0897 34.6 68.0897 34.633 68.0897 34.666C68.0897 34.787 67.9687 34.831 67.8257 34.831H67.7817C67.1217 34.831 66.8687 35.051 66.8687 35.271C66.8687 35.458 67.0337 35.667 67.4517 36.129C67.9577 36.679 68.1777 37.174 68.1777 37.592C68.1777 38.89 66.2087 39.594 64.7347 39.594ZM72.1516 39.352L69.9516 39.462H69.9296C69.8086 39.462 69.7206 39.363 69.7096 39.242L69.4346 33.885C69.4346 33.753 69.5226 33.654 69.6546 33.643L71.8546 33.533H71.8766C71.9866 33.533 72.0856 33.632 72.0856 33.742L72.3606 39.11V39.132C72.3606 39.242 72.2616 39.341 72.1516 39.352ZM72.2616 31.729C72.2616 32.62 71.5356 33.346 70.6446 33.346C69.7426 33.346 69.0166 32.62 69.0166 31.729C69.0166 30.827 69.7426 30.101 70.6446 30.101C71.5356 30.101 72.2616 30.827 72.2616 31.729ZM81.0907 37.9L80.4967 39.275C80.4087 39.484 80.2987 39.594 80.1337 39.594C80.1337 39.594 79.1877 39.495 78.5717 38.879C77.9557 39.22 77.3177 39.374 76.7127 39.374C74.8757 39.374 73.3027 37.966 73.3027 36.195C73.3027 34.853 74.2377 32.972 76.4157 32.972C76.8887 32.972 77.3617 33.071 77.7577 33.214L77.9557 30.266C77.9667 30.079 78.1427 29.969 78.3627 29.969L80.2657 30.002C80.5737 30.002 80.6617 30.145 80.6617 30.299V30.332C80.6397 30.475 80.2877 35.062 80.2877 35.821C80.2877 36.723 80.4197 37.394 80.8707 37.592C80.9917 37.647 81.1127 37.702 81.1127 37.801C81.1127 37.834 81.1127 37.867 81.0907 37.9ZM77.7907 37.163C77.7137 36.668 77.6697 36.085 77.6697 35.381C77.5487 35.161 77.2407 35.007 76.9107 35.007C76.2507 35.007 75.8327 35.612 75.8327 36.228C75.8327 36.844 76.2617 37.372 76.9657 37.372C77.2077 37.372 77.4827 37.306 77.7907 37.163ZM89.3085 37.9L88.7145 39.275C88.6265 39.484 88.5165 39.594 88.3515 39.594C88.3515 39.594 87.4055 39.495 86.7895 38.879C86.1735 39.22 85.5355 39.374 84.9305 39.374C83.0935 39.374 81.5205 37.966 81.5205 36.195C81.5205 34.853 82.4555 32.972 84.6335 32.972C85.1065 32.972 85.5795 33.071 85.9755 33.214L86.1735 30.266C86.1845 30.079 86.3605 29.969 86.5805 29.969L88.4835 30.002C88.7915 30.002 88.8795 30.145 88.8795 30.299V30.332C88.8575 30.475 88.5055 35.062 88.5055 35.821C88.5055 36.723 88.6375 37.394 89.0885 37.592C89.2095 37.647 89.3305 37.702 89.3305 37.801C89.3305 37.834 89.3305 37.867 89.3085 37.9ZM86.0085 37.163C85.9315 36.668 85.8875 36.085 85.8875 35.381C85.7665 35.161 85.4585 35.007 85.1285 35.007C84.4685 35.007 84.0505 35.612 84.0505 36.228C84.0505 36.844 84.4795 37.372 85.1835 37.372C85.4255 37.372 85.7005 37.306 86.0085 37.163ZM97.7903 38.604L96.7453 39.462C96.6243 39.561 96.5143 39.594 96.4153 39.594C96.3713 39.594 94.3363 39.22 94.3363 36.987C94.3363 35.656 93.7203 35.183 92.9283 35.183H92.8733V39.176C92.8733 39.308 92.7743 39.407 92.6533 39.407H90.4533C90.3213 39.407 90.2223 39.308 90.2223 39.176V30.178C90.2223 30.057 90.3213 29.947 90.4533 29.947H92.6533C92.7743 29.947 92.8733 30.057 92.8733 30.178V33.038C93.0053 33.027 93.1373 33.027 93.2583 33.027C95.3263 33.027 96.9763 34.259 97.0093 36.437C97.0203 37.152 97.1633 37.702 97.7023 38.131C97.7683 38.186 97.8893 38.296 97.8893 38.417C97.8893 38.472 97.8673 38.538 97.7903 38.604ZM105.868 38.021L105.186 39.352C105.087 39.539 104.977 39.638 104.834 39.638C104.724 39.638 103.954 39.462 103.404 38.945C102.832 39.242 102.238 39.374 101.677 39.374C99.8403 39.374 98.2563 37.966 98.2563 36.195C98.2563 34.875 99.1913 32.972 101.369 32.972C101.919 32.972 102.458 33.093 102.887 33.28C102.953 33.203 103.052 33.17 103.184 33.17H103.239L105.142 33.335C105.428 33.357 105.505 33.5 105.505 33.632V33.687C105.351 34.688 105.197 35.645 105.197 36.371C105.197 37.031 105.318 37.504 105.67 37.691C105.78 37.746 105.901 37.812 105.901 37.922C105.901 37.944 105.89 37.977 105.868 38.021ZM102.645 37.218C102.612 36.932 102.59 36.624 102.59 36.283C102.59 35.997 102.601 35.7 102.623 35.37C102.491 35.15 102.194 34.996 101.875 34.996C101.182 34.996 100.797 35.667 100.797 36.228C100.797 36.844 101.226 37.372 101.941 37.372C102.15 37.372 102.392 37.328 102.645 37.218Z" fill="black"/>
</svg>
